<?xml version="1.0" encoding="utf-8"?>
<!-- Generator: Adobe Illustrator 16.0.0, SVG Export Plug-In . SVG Version: 6.00 Build 0)  -->
<!DOCTYPE svg PUBLIC "-//W3C//DTD SVG 1.1//EN" "http://www.w3.org/Graphics/SVG/1.1/DTD/svg11.dtd">
<svg version="1.1" id="Head" xmlns="http://www.w3.org/2000/svg" xmlns:xlink="http://www.w3.org/1999/xlink" x="0px" y="0px"
	 width="310px" height="280px" viewBox="0 0 310 280" enable-background="new 0 0 310 280" xml:space="preserve">
<radialGradient id="Background_2_" cx="-1.667" cy="-19.3335" r="417.0428" gradientUnits="userSpaceOnUse">
	<stop  offset="0.0368" style="stop-color:#FFFFFF"/>
	<stop  offset="0.0758" style="stop-color:#DBE0E9"/>
	<stop  offset="0.1325" style="stop-color:#AEB9CE"/>
	<stop  offset="0.1948" style="stop-color:#8495B5"/>
	<stop  offset="0.2611" style="stop-color:#6076A0"/>
	<stop  offset="0.3326" style="stop-color:#425C8E"/>
	<stop  offset="0.4109" style="stop-color:#2A477F"/>
	<stop  offset="0.499" style="stop-color:#173774"/>
	<stop  offset="0.6022" style="stop-color:#0A2C6C"/>
	<stop  offset="0.7347" style="stop-color:#022567"/>
	<stop  offset="1" style="stop-color:#002366"/>
</radialGradient>
<rect id="Background_1_" x="-109" y="-88.167" display="none" fill="url(#Background_2_)" width="531.334" height="209.667"/>
<path id="Mic_Cable" fill="#FFFFFF" d="M75.658,145.17l-1.119,15.408c0,0,0.429,4.041,1.604,6.037
	c-0.552,0.519-1.104,0.769-1.326,1.212c-0.224,0.444,0.262,3.257,0.434,3.584c0.174,0.331,0.865,0.358,1.127,0.673
	c-0.872,0.62-1.031,1.102-1.031,1.102s0.111,2.444,0.59,2.974c0.481,0.529,0.605,0.552,0.696,0.764
	c0.096,0.211-0.577,0.504-0.386,1.071c0.189,0.564,0.151,2.314,0.605,3.113c0.457,0.802,0.358,0.56,1.119,0.93
	c-0.388,0.434-0.935,0.391-0.996,1.039c-0.058,0.668,0.451,2.705,0.726,3.264c0.686,0.458,0.603,0.454,1.185,0.587
	c-0.477,0.353-0.968,0.38-0.938,0.953c0.033,0.575,0.136,2.626,0.501,3.264c0.595,0.383,1.512,0.58,1.931,0.726
	c-0.64,0.361-1.056,0.22-1.454,0.484c-0.398,0.267-0.371,2.324,0.083,3.123c0.779,0.784,1.837,0.564,2.745,0.595
	c-0.882,0.461-1.717,0.257-2.11,0.607s-0.179,2.808,0.184,3.448c0.36,0.635,1.84,0.557,2.898,0.34
	c-0.63,0.524-0.958,0.625-1.417,1.308c-0.456,0.681-0.353,2.651,0.421,3.27c1.003,0.274,1.561-0.083,2.216-0.119
	c-0.63,0.527-0.792,0.618-1.019,1.041c-0.222,0.426-0.35,2.735,0.832,3.249c1.159,0.103,0.584,0.133,1.159,0.103
	c-0.638,0.446-1.855,2.322-1.268,4.099c0.587,1.777,4.457,14.332,5.78,23.888c0.378,4.016,2.571,12.868-3.231,23.046
	c-2.68,3.844-6.952,8.189-11.391,11.388c4.701,0.245,4.701,0.245,4.701,0.245s-2.833,2.858,0.285-0.434
	c3.118-3.292,6.021-5.991,8.426-8.754c2.2-3.489,4.461-9.039,4.938-14.085c0.476-5.043-0.877-15.091-2.029-19.802
	c-1.152-4.716-3.428-13.563-4.202-17.309c1.79-0.421,5.311-2.334,6.251-3.208c0.94-0.873-0.683-3.584-0.958-4.144
	c-0.756-0.287-2.563-0.194-2.563-0.194c0.804-0.373,2.166-1.101,1.455-2.135c-0.713-1.031-1.329-1.742-2.707-1.341
	c1.285-0.64,1.444-2.294,0.97-3.506c-0.852-0.529-0.648-1.364-1.646-1.558c1.051-0.385,0.779-2.427,0.108-2.639
	c0.305-0.509,1.134-2.838-0.018-3.456c-0.859-0.696-1.455-1.077-0.323-1.464c0.88-0.456,0.562-3.597-0.434-3.713
	c-0.753-0.29-2.419-0.416-1.691-0.698c0.726-0.287,2.003-0.706,2.037-1.694c0.033-0.988-0.52-2.336-2.11-2.831
	c0.29-0.756,1.071,0.027,0.9-1.691c-0.174-1.719-0.078-2.715-1.691-2.874c-0.986-0.053-0.875-0.497-0.144-0.675
	c0.733-0.179,1.53-0.633,1.074-3.075c-0.686-0.542-1.19-0.762-1.603-0.739c0.549-0.524,0.66-0.088,1.076-1.457
	c0.416-1.369-0.859-2.259-2.665-2.163c-0.99-0.033-1.386,0.234-2.561-0.194c-1.175-0.434-1.271-0.678-1.815-6.324
	c-0.544-5.651,1.235-14.841,1.235-14.841L75.658,145.17z"/>
<path id="head_1_" fill="#FFFFFF" d="M4.555,277.227c0,0-0.219-7.013,0-10.955c13.583-0.441,47.508-3.345,60.479-5.043
	c18.405-2.41,31.772-7.232,35.059-31.336c1.096-10.955,0.877-12.928,0.877-22.131c-0.877-1.754-8.547-9.203-15.121-46.458
	c-2.629-0.438-6.352,0-10.516-7.887c-4.164-7.89-8.328-15.776-11.396-34.185c-0.219-10.08,0.877-20.159,6.574-21.692
	c4.822-0.219,3.065-0.219,6.574,0c-0.219-2.412,0-25.201,1.094-35.062C79.278,52.619,84.314,2,153.999,2
	c69.682,0,74.723,50.619,75.818,60.479c1.096,9.861,1.315,32.649,1.099,35.062c3.504-0.219,1.752-0.219,6.571,0
	c5.696,1.533,6.793,11.613,6.573,21.692c-3.067,18.408-7.229,26.295-11.393,34.185c-4.164,7.887-7.89,7.448-10.521,7.887
	c-6.573,37.255-14.241,44.703-15.121,46.458c0,9.203-0.214,11.176,0.88,22.131c3.284,24.104,16.653,28.926,35.062,31.336
	c12.969,1.699,46.894,4.603,60.479,5.043c0.219,3.942,0,10.955,0,10.955H153.999H4.555z M171.484,135.317
	c0.118-1.406,0.547-2.815,0.547-2.815l0.509-0.821c0,0,4.459-3.05,4.812-15.489c2.463-7.746,11.028-22.061,13.027-26.638
	c1.99-4.578,9.971-19.951,1.29-38.374c-9.39-17.13-24.528-23.588-37.67-23.588c-13.145,0-28.281,6.458-37.667,23.588
	c-8.686,18.423-0.706,33.796,1.291,38.374c1.994,4.577,10.559,18.892,13.024,26.638c0.353,12.439,4.812,15.489,4.812,15.489
	l0.507,0.821c0,0,0.434,1.409,0.549,2.815H171.484z"/>
<linearGradient id="Bulb_base_1_" gradientUnits="userSpaceOnUse" x1="136.1387" y1="152.7446" x2="172.7559" y2="152.7446">
	<stop  offset="0" style="stop-color:#FFFFFF"/>
	<stop  offset="0.0089" style="stop-color:#F9F9F9"/>
	<stop  offset="0.0209" style="stop-color:#E8E8E8"/>
	<stop  offset="0.0347" style="stop-color:#CBCBCC"/>
	<stop  offset="0.0498" style="stop-color:#A4A4A4"/>
	<stop  offset="0.0658" style="stop-color:#727272"/>
	<stop  offset="0.0798" style="stop-color:#404041"/>
	<stop  offset="0.9141" style="stop-color:#404041"/>
	<stop  offset="0.9238" style="stop-color:#5F5F60"/>
	<stop  offset="0.9433" style="stop-color:#979798"/>
	<stop  offset="0.9614" style="stop-color:#C4C4C4"/>
	<stop  offset="0.9774" style="stop-color:#E4E4E4"/>
	<stop  offset="0.9908" style="stop-color:#F8F8F8"/>
	<stop  offset="1" style="stop-color:#FFFFFF"/>
</linearGradient>
<path id="Bulb_base_2_" fill="url(#Bulb_base_1_)" d="M171.322,135.317c0.928,1.959,1.471,1.528,1.432,3.249
	c-1.056,0.771-1.706,1.492-1.471,2.43c1.859,1.641,1.271,1.636,1.201,2.695c-1.234,1.056-1.475,1.185-1.475,2.24
	c1.318,1.082,2.096,2.256,1.203,3.04c-0.928,0.466-1.623,1.089-1.275,1.913c1.628,1.054,1.744,2.195,1.391,2.896
	c-1.277,0.471-1.472,1.605-1.472,2.19c0.466,0.706,1.513,1.174,1.472,1.996c-0.09,1.941-7.635,6.922-7.635,6.922h-0.812
	c0,0-1.976,2.23-3.02,3.171c-0.585,1.875-2.208,2.112-2.208,2.112h-4.65h-4.651c0,0-1.628-0.237-2.208-2.112
	c-1.048-0.94-3.022-3.171-3.022-3.171h-0.814c0,0-5.001-5.044-5.23-5.044c-0.234,0-0.466-1.172,0-1.878
	c0-0.587-0.116-1.291-1.396-1.762c-0.348-0.701-0.93-1.288,0.698-2.347c0.345-0.819,0.464-1.991-0.466-2.463
	c-0.58-0.706-1.162-1.293,0.698-3.053c0-1.056-0.088-1.406-1.323-2.462c-0.071-1.059-0.653-0.822,1.208-2.466
	c0.229-0.938,0.09-1.759-1.349-2.581c-0.045-1.409,0.07-3.284,0.534-5.518H171.322z"/>
<linearGradient id="Bulb_base_mask_2_" gradientUnits="userSpaceOnUse" x1="137.5078" y1="152.7446" x2="171.3906" y2="152.7446">
	<stop  offset="0" style="stop-color:#58595B"/>
	<stop  offset="0.2025" style="stop-color:#404041"/>
	<stop  offset="0.8098" style="stop-color:#404041"/>
	<stop  offset="0.9215" style="stop-color:#515254"/>
	<stop  offset="1" style="stop-color:#58595B"/>
	<stop  offset="1" style="stop-color:#5E5F61"/>
	<stop  offset="1" style="stop-color:#6F7072"/>
	<stop  offset="1" style="stop-color:#8C8C8E"/>
	<stop  offset="1" style="stop-color:#B3B4B5"/>
	<stop  offset="1" style="stop-color:#E5E5E6"/>
	<stop  offset="1" style="stop-color:#FFFFFF"/>
</linearGradient>
<path id="Bulb_base_mask_1_" fill="url(#Bulb_base_mask_2_)" fill-opacity="0.5" d="M170.061,135.317
	c0.859,1.959,1.363,1.528,1.328,3.249c-0.98,0.771-1.578,1.492-1.363,2.43c1.719,1.641,1.18,1.641,1.111,2.695
	c-1.143,1.056-1.361,1.185-1.361,2.24c1.217,1.082,1.934,2.256,1.111,3.04c-0.861,0.466-1.505,1.089-1.182,1.913
	c1.507,1.054,1.61,2.193,1.287,2.896c-1.18,0.471-1.361,1.605-1.361,2.19c0.43,0.706,1.399,1.174,1.361,1.996
	c-0.082,1.941-7.062,6.922-7.062,6.922h-0.751c0,0-1.827,2.23-2.798,3.168c-0.539,1.878-2.041,2.115-2.041,2.115h-4.301h-4.303
	c0,0-1.507-0.237-2.044-2.115c-0.971-0.938-2.798-3.168-2.798-3.168h-0.754c0,0-4.625-5.044-4.837-5.044
	c-0.217,0-0.434-1.172,0-1.878c0-0.587-0.111-1.291-1.293-1.759c-0.32-0.704-0.86-1.291,0.645-2.349
	c0.323-0.819,0.431-1.991-0.428-2.463c-0.537-0.706-1.077-1.293,0.643-3.053c0-1.056-0.081-1.406-1.223-2.46
	c-0.065-1.061-0.605-0.824,1.117-2.468c0.214-0.938,0.083-1.759-1.248-2.581c-0.043-1.406,0.065-3.284,0.494-5.518H170.061z"/>
<linearGradient id="bulb_thread_5_2_" gradientUnits="userSpaceOnUse" x1="155.4946" y1="165.5391" x2="154.8821" y2="156.7802">
	<stop  offset="0" style="stop-color:#808184"/>
	<stop  offset="0.2945" style="stop-color:#404041"/>
	<stop  offset="0.8957" style="stop-color:#404041"/>
	<stop  offset="1" style="stop-color:#808184"/>
</linearGradient>
<path id="bulb_thread_5_1_" fill="url(#bulb_thread_5_2_)" d="M171.686,159.407c0,0-5.611,4.976-6.891,5.482
	c-2.493-0.086-20.77,0-20.77,0h-0.822c0,0-4.305-4.059-4.908-4.757c-0.62-0.837-0.933-1.454-0.373-2.165
	c0.991-0.065,31.253-1.237,33.691-1.349C172.366,157.443,172.768,157.892,171.686,159.407z"/>
<linearGradient id="bulb_thread_4_2_" gradientUnits="userSpaceOnUse" x1="154.4668" y1="155.4097" x2="154.2662" y2="152.5407">
	<stop  offset="0" style="stop-color:#808184"/>
	<stop  offset="0.2945" style="stop-color:#404041"/>
	<stop  offset="0.8957" style="stop-color:#404041"/>
	<stop  offset="1" style="stop-color:#808184"/>
</linearGradient>
<path id="bulb_thread_4_1_" fill="url(#bulb_thread_4_2_)" d="M172.039,154.005c0,0-33.668,2.5-34.744,2.606
	c-1.077,0.108-1.273-1.835-0.676-2.293c1.432-0.187,33.239-2.677,35.066-2.995C172.417,152.198,172.83,153.123,172.039,154.005z"/>
<linearGradient id="bulb_thread_3_2_" gradientUnits="userSpaceOnUse" x1="154.5312" y1="150.5347" x2="154.3423" y2="147.8323">
	<stop  offset="0" style="stop-color:#808184"/>
	<stop  offset="0.2945" style="stop-color:#404041"/>
	<stop  offset="0.8957" style="stop-color:#404041"/>
	<stop  offset="1" style="stop-color:#808184"/>
</linearGradient>
<path id="bulb_thread_3_1_" fill="url(#bulb_thread_3_2_)" d="M171.902,149.244c0,0-33.534,2.5-34.771,2.455
	c-0.749-0.779-1.341-1.553-0.509-2.455c1.538-0.285,33.458-2.508,35.281-2.639C172.387,147.182,173.312,148.452,171.902,149.244z"/>
<linearGradient id="bulb_thread_2_2_" gradientUnits="userSpaceOnUse" x1="154.4468" y1="145.4771" x2="154.2408" y2="142.5321">
	<stop  offset="0" style="stop-color:#808184"/>
	<stop  offset="0.2945" style="stop-color:#404041"/>
	<stop  offset="0.8957" style="stop-color:#404041"/>
	<stop  offset="1" style="stop-color:#808184"/>
</linearGradient>
<path id="bulb_thread_2_1_" fill="url(#bulb_thread_2_2_)" d="M172.125,144.142c0,0-34.089,2.457-35.161,2.558
	c-0.849-0.819-1.623-1.59,0-2.957c1.949-0.177,33.774-2.004,35.161-2.112C172.656,142.266,173.034,142.934,172.125,144.142z"/>
<linearGradient id="bulb_thread_1_2_" gradientUnits="userSpaceOnUse" x1="154.5029" y1="139.9482" x2="154.1723" y2="135.2196">
	<stop  offset="0" style="stop-color:#808184"/>
	<stop  offset="0.2945" style="stop-color:#404041"/>
	<stop  offset="0.8957" style="stop-color:#404041"/>
	<stop  offset="1" style="stop-color:#808184"/>
</linearGradient>
<path id="bulb_thread_1_1_" fill="url(#bulb_thread_1_2_)" d="M172.932,138.566c0,0-34.896,2.433-36.396,2.64
	c-1.182-0.439-0.375-2.942-0.234-4.736c1.21-0.013,35.851,0,35.851,0S173.213,137.55,172.932,138.566z"/>
<linearGradient id="Bulb_thread_mask_2_" gradientUnits="userSpaceOnUse" x1="137.5078" y1="152.7446" x2="171.3906" y2="152.7446">
	<stop  offset="0" style="stop-color:#58595B;stop-opacity:0"/>
	<stop  offset="0.011" style="stop-color:#565759;stop-opacity:0.0253"/>
	<stop  offset="0.1034" style="stop-color:#494A4B;stop-opacity:0.2375"/>
	<stop  offset="0.2197" style="stop-color:#424243;stop-opacity:0.5043"/>
	<stop  offset="0.4356" style="stop-color:#404041"/>
	<stop  offset="0.5583" style="stop-color:#404041"/>
	<stop  offset="0.7886" style="stop-color:#424243;stop-opacity:0.4787"/>
	<stop  offset="0.8993" style="stop-color:#49494B;stop-opacity:0.2281"/>
	<stop  offset="0.9843" style="stop-color:#555658;stop-opacity:0.0356"/>
	<stop  offset="1" style="stop-color:#58595B;stop-opacity:0"/>
</linearGradient>
<path id="Bulb_thread_mask_1_" fill="url(#Bulb_thread_mask_2_)" d="M170.061,135.317c0.859,1.959,1.363,1.528,1.328,3.249
	c-0.98,0.771-1.578,1.492-1.363,2.43c1.719,1.641,1.18,1.641,1.111,2.695c-1.143,1.056-1.361,1.185-1.361,2.24
	c1.217,1.082,1.934,2.256,1.111,3.04c-0.861,0.466-1.505,1.089-1.182,1.913c1.507,1.054,1.61,2.193,1.287,2.896
	c-1.18,0.471-1.361,1.605-1.361,2.19c0.43,0.706,1.399,1.174,1.361,1.996c-0.082,1.941-7.062,6.922-7.062,6.922h-0.751
	c0,0-1.827,2.23-2.798,3.168c-0.539,1.878-2.041,2.115-2.041,2.115h-4.301h-4.303c0,0-1.507-0.237-2.044-2.115
	c-0.971-0.938-2.798-3.168-2.798-3.168h-0.754c0,0-4.625-5.044-4.837-5.044c-0.217,0-0.434-1.172,0-1.878
	c0-0.587-0.111-1.291-1.293-1.759c-0.32-0.704-0.86-1.291,0.645-2.349c0.323-0.819,0.431-1.991-0.428-2.463
	c-0.537-0.706-1.077-1.293,0.643-3.053c0-1.056-0.081-1.406-1.223-2.46c-0.065-1.061-0.605-0.824,1.117-2.468
	c0.214-0.938,0.083-1.759-1.248-2.581c-0.043-1.406,0.065-3.284,0.494-5.518H170.061z"/>
</svg>
